<svg xmlns="http://www.w3.org/2000/svg" version="1.1" xmlns:xlink="http://www.w3.org/1999/xlink" xmlns:svgjs="http://svgjs.dev/svgjs" width="1000" height="1125" viewBox="0 0 1000 1125"><g transform="matrix(1,0,0,1,0,0)"><svg viewBox="0 0 320 360" data-background-color="#ffffff" preserveAspectRatio="xMidYMid meet" height="1125" width="1000" xmlns="http://www.w3.org/2000/svg" xmlns:xlink="http://www.w3.org/1999/xlink"><g id="tight-bounds" transform="matrix(1,0,0,1,0,0)"><svg viewBox="0 0 320 360" height="360" width="320"><g><svg></svg></g><g><svg viewBox="0 0 320 360" height="360" width="320"><g><path xmlns="http://www.w3.org/2000/svg" d="M165.217 303.356c-1.404-1.755-2.809-0.702-2.808-1.755-8.426 2.106-24.223-3.511-30.894-2.809 1.404-2.106-2.106-1.755-2.106-3.159-1.404 2.106-2.809 0-4.915 0.702-2.106-5.266-10.532-1.404-11.585-8.075-4.915 0-6.67-2.809-11.586-5.617 0.351-0.351 0.702-0.351 1.054-0.702-2.457-0.351-2.457-1.755-4.564-1.755l0.702-1.405c-3.862-0.702-5.266-6.67-10.883-8.776-1.755-0.351-5.617-6.319-7.723-7.724-1.053-0.702-2.809-0.702-0.352-1.053-0.351-0.351-0.351-1.053 0-1.404-2.457-0.702-2.809-2.809-5.968-3.862-0.351-1.053 0.702-1.755 0-2.457-0.702-0.351-1.755 0.351-2.457 0-0.351 6.319 6.67 7.021 8.777 12.287-0.702-0.702-1.755-2.809-2.458-1.404-0.351 1.053 2.809 4.915 2.809 2.808-1.053 0.702-1.404-1.053-0.703-1.404 1.053 1.755 3.16 1.404 3.16 2.809-1.053 1.053-2.457-1.053-2.106 0.702 3.16 1.755 2.809 3.511 4.563 5.968-1.404-1.755-1.755 1.404-3.159 0-0.351-5.266-6.319-4.213-6.319-9.479-0.702-1.755-1.404-0.351-2.458-1.053 1.404-1.404-4.213-6.319-4.213-4.564-1.755-2.106-0.702-2.809-1.053-4.213-1.404-0.351-0.351 1.404-1.404 0.351 1.404-2.457-1.755-5.617-3.862-8.074l1.405-0.702c-2.457-1.404-2.809-4.213-4.564-7.373-2.106 3.16 4.213 10.181 3.159 11.585 0 0.351 2.457 3.16 3.16 4.564 2.809 4.915 4.915 10.883 8.777 13.692-0.702-0.351-0.351-2.457 0.702-1.404 0 1.053-0.702 2.106-0.702 3.159 2.106 2.106 3.862 3.862 5.968 5.968-4.564-2.809-9.128-5.617-12.288-9.83 1.755-0.351 3.511 2.809 4.915 2.458-3.511-2.809-2.457-3.862-3.861-7.372-1.404-1.053 0.351 1.404-1.054 1.755-4.564-4.213-8.075-6.67-10.181-10.532 0.351-0.351 0.702-0.702 0.703-1.404-0.351-0.351-0.351-0.351-0.703-0.702 2.106 2.106 2.809 3.862 5.266 4.212-1.053-1.053 0-1.404-1.404-2.457-0.702-1.404-1.755 0.702-2.457-0.351 0.702-1.053 0-2.457 0-3.511-0.702 0-1.404 0-1.756-1.053-0.702-0.351-1.053 0-1.404 0.702-0.351-0.351-0.351-1.053-0.702-1.404v-0.351c-0.351-0.351-0.702-1.053-1.053-1.405-2.809-7.372-4.564-17.202-8.426-23.521 1.053-4.213-0.702-12.638-1.755-14.745 1.053-1.755 0.351-9.83-0.351-11.234-1.755 0.702 0.351 4.564-1.404 5.617-1.755-7.723 1.053-16.5 0.351-23.521 0.702 0 1.404 0 1.404-0.351-1.053-1.053 0.702-3.16 0.351-5.617 1.404-3.16-3.16 4.564-3.16 7.723-0.351 0.702-1.755 0-1.404 1.756 0 2.457 0.702 7.372-0.702 10.883-0.702 0-0.702-0.702-1.404-0.351-0.351 1.755-0.702 3.862-1.053 5.617-0.351-0.702-0.702-1.755-0.703-2.107-1.755-8.777 0-18.958-0.702-26.33 1.404 0 1.404-2.106 2.458-2.808-0.351 2.809-1.053 6.319 0.702 7.021 1.404-13.692 4.213-28.787 10.532-43.532 4.564-10.883 11.234-21.766 19.308-30.543 0.702 1.053-0.351 3.511 0 4.564 7.021-7.372 11.585-16.149 19.309-21.064 0.351 1.755-3.16 3.16-3.16 4.564 3.16-3.16 4.213-2.106 7.724-3.159 1.053-1.404-1.404 0-1.756-1.405 2.106-1.404 3.511-3.16 4.915-4.212 0 0.351-0.351 0.351-0.351 0.702 3.862-1.053 4.213-3.16 7.022-3.862-0.351-0.351-1.053-0.702-2.107-0.351 0.702-0.351 1.755-1.053 2.809-1.404-0.351 0-0.351 0.351-0.702 0.351 2.106-1.053 0.351 0.351 0.351 1.053 0.351 0 0.702-0.351 0.702-0.351-2.106 1.404-3.511 2.106-4.213 4.564 1.053-0.702 1.404 0 2.809-1.054 1.404-0.702-0.351-1.755 0.702-2.457 1.053 0.702 2.457 0.351 3.51 0.351 0-0.702 0.351-1.404 1.054-1.755 0.351-0.702 0-1.053-0.352-1.053 0.351-0.351 0.702-0.351 1.405-0.703 0 0 0.351 0 0.351 0.351 5.968-2.809 12.638-5.266 18.957-7.372 3.862-0.351 8.777-0.351 10.883-2.808-0.702 0-1.404 0.351-1.755 0 0.351 0 1.053-0.351 1.404-0.351 0.702 0.702 1.755 0 0.702 1.404 0.351 0 0.351 0 0.703-0.351 0 0.351 0 0.351 0.351 0.702 0.351 0 0.702-0.351 1.053-1.053 0.351 0 0.702 0 1.053-0.351l-0.351 0.351c2.809-0.702 5.266-0.351 9.128-1.054 0-0.351 0-0.702 0-1.053 0.702 0 1.053-0.351 1.755-0.351v0.351c1.404-0.702 2.809 0.702 2.808 0 0.351 0 0.351 0 0.703 0 0 0.702-0.351 1.053-0.351 1.405 1.755 0 2.809 0 3.51-1.054-0.351-0.351-0.702-0.351-1.053-0.351 0.702 0 1.404-0.351 2.106-0.702 1.053 0.351 1.404 0.702 1.405 2.107 1.755-3.16 7.372 0.702 9.829 0 1.053 0 0.702-1.404 1.405-2.107 0.351 0 0.702 0 1.053 0 1.755 1.404 4.213 2.809 7.372 3.16-2.809-0.702 0.351-1.053 0.702-1.405-0.702 0-0.702-0.351-0.702-0.702 1.053 0 2.106 0.351 3.16 0.351 0 0.702 0.351 1.053 1.053 1.054 0.702 0 0.702-0.351 0.702-1.054 1.053 0 1.755 0 2.809 0.351-0.351 1.404 1.755 1.755 2.457 2.809-2.809-0.702-5.968-1.755-7.021 0 11.234 2.457 23.521 5.968 35.457 11.936 0 0 0 0 0 0.351h0.352c2.106 1.053 4.213 2.106 6.319 3.16 1.404 0.702 2.457 1.404 3.861 2.457 0 0.351 0 0.702 0.703 0.702h0.351c1.404 1.053 2.809 1.755 4.212 2.809 1.404 2.106 2.809 4.915 5.266 4.213 5.266 8.075 10.883 11.234 15.447 19.659 0.351-1.404 1.404 3.16 3.16 3.511-2.809-0.351 1.755 1.755-1.053 1.404 2.457 2.457 3.16 3.511 3.51 6.319-0.702-1.404-1.053-1.755-1.404-0.351-0.351 2.106 2.457-0.351 3.511 1.756-2.106 0-1.404 1.404-1.054 3.159 1.053-1.053 0.702-2.106 1.756-1.755 1.404 1.404-0.702 1.755-0.351 2.809 1.053-1.404 1.404-0.702 2.808 0-1.755 0.351 1.053 2.809-1.053 1.755 1.404 1.755 1.755 2.809 1.053 4.564-1.404-2.106-0.351-3.511-2.457-3.16 4.213 3.511 2.106 11.585 7.021 12.287-3.16 0.702 0 2.106-1.755 2.458 2.106 0.702 1.053 3.511 3.51 4.213-0.351 1.755-1.053 2.809-1.404 4.563 1.053 1.404 1.404 4.213 3.16 4.564-1.053 1.053-0.351 3.862-1.404 4.915 1.404-0.702 2.106-0.702 3.159 0.702-1.755 1.404-0.351 2.809-1.404 3.16 3.16 8.075-0.702 24.575 1.053 30.894-2.106-1.053-1.404 2.457-2.808 2.457 2.457 1.053 0.351 2.809 1.404 4.564-4.915 2.809 0 10.532-6.67 12.287 0.702 4.915-2.106 7.021-4.213 12.288-0.351-0.351-0.351-0.702-0.702-1.054-0.351 2.457-1.755 2.809-1.054 4.915l-1.404-0.702c0 3.862-5.968 5.968-7.372 11.936-0.351 1.755-5.617 6.319-7.022 8.777-0.702 1.053-0.351 2.809-1.053 0.351-0.351 0.351-1.053 0.351-1.404 0.351-0.351 2.457-2.457 3.16-3.16 6.319-0.702 0.351-1.755-0.702-2.457 0.351 0 0.702 0.702 1.755 0.351 2.458 6.319-0.351 6.319-7.723 11.234-10.181-0.351 1.053-2.457 2.106-1.053 2.808 1.053 0 4.213-3.511 2.457-3.159 1.053 0.702-1.053 1.404-1.404 1.053 1.755-1.404 1.053-3.16 2.458-3.511 1.053 0.702-1.053 2.457 1.053 2.107 1.404-3.16 3.16-3.511 5.266-5.266-1.404 1.404 1.755 1.755 0.351 3.159-5.266 1.053-3.511 7.021-8.777 7.724-1.404 1.053-0.351 1.404-0.702 2.457-1.755-1.053-5.617 4.915-4.213 4.564-1.755 1.755-2.809 1.053-4.212 1.404-0.351 1.404 1.404 0.351 0.702 1.405-2.457-1.053-5.617 2.457-7.724 4.915l-1.053-1.054c-1.053 2.809-3.862 3.16-7.021 5.266 3.511 1.755 9.479-5.617 11.234-4.564 0.351 0 3.16-2.809 4.213-3.861 4.564-3.511 10.181-6.319 12.287-10.181-0.351 0.702-2.457 0.702-1.404-0.351 1.053-0.351 2.106 0.351 3.159 0.351 5.617-7.723 12.638-14.043 17.905-23.17 0.351-0.351 0.702-1.053 1.053-1.756-0.702 2.106-1.755 3.862-2.458 5.968-5.617 3.862-7.723 15.096-14.393 16.851 0.351 3.862-3.16 4.915-4.915 9.479-1.053 1.404-1.755-1.053-2.809 0.702 1.053 4.915-8.777 4.564-8.425 9.128-0.702 0.351-1.755 0.702-2.458 1.404h-0.351c-0.351 0.351-0.351 0.351-0.702 0.702-1.755 1.053-3.16 2.106-4.564 3.16-4.915 2.809-11.585 4.915-16.851 7.723v-0.351c-1.404 0.702-3.16 0.351-2.809 1.756-1.053 0.702-2.106 1.404-3.159 2.106-0.351 0-0.351 0-0.702 0 0 0-0.351-0.351-0.702-0.351-0.702 0-0.702 0-1.054 0.351-4.564 0.351-10.532 2.457-12.287 3.862-1.755-1.053-9.83 0.702-11.234 1.404 0.702 1.053 2.809 0 4.564 0-1.053 0.351-2.106 0.702-2.458 1.404-0.351 0-0.351 0-0.702 0-0.351-1.053-1.404 0-1.755-0.351h0.351c-0.351-1.404-1.404-2.106-3.16-1.755 0 0.702 0 1.053-0.351 1.755 0.702 0 2.809-1.053 2.809 0-0.351 0-0.351 0.351 0 0.351-0.702 0.702-1.755 0.702-2.458 1.054-1.404 0-3.16 0-4.563 0-0.351-0.351-0.702-0.351-1.405-0.703-0.351 0.351-1.053 0.351-1.404 0.703-2.106 0-4.564 0.351-6.319 0.702 0-0.702 0-1.404-0.702-1.405-1.053 1.404-3.16-0.351-5.617 0.352-2.457-0.702 1.404 1.053 4.915 1.755-0.351 0.351-0.702 0.702-1.756 1.053M116.068 308.271c-4.915-4.564-15.096-6.67-16.851-10.181-2.809-0.351-7.021-5.617-10.532-6.319 1.755 0 0.351-1.053 0-1.755-0.702 0.702-1.404 1.053-2.106 1.053 0-2.809-2.809-4.564-5.266-6.319 1.755 1.053 3.16 1.755 5.266 2.106 0-0.702 0-1.404 0.702-1.404 2.457 2.457 5.266 4.915 8.425 7.372 4.213 3.862 25.979 13.692 29.841 15.447 0 0-0.702 1.404-0.351 1.404 1.755 1.053 3.16-1.053 3.511 1.404-5.617 0.702-7.723-3.16-12.639-2.808M277.909 226.824v0.351 0c-0.351 0 0-0.351 0-0.351M136.079 64.281c-0.351 0.351-0.702 0.351-0.702 0.351 0-0.351 0.351-0.351 0.702-0.351M129.409 66.036c0 0.351 0 0.351 0 0 0 0.351 0 0.351 0 0 0 0.351 0 0 0 0M106.238 73.408v0c0.351-0.351 0.351-0.351 0.703-0.351-0.351 0-0.702 0.351-0.703 0.351M162.409 61.823c-0.702 0-1.053 0-1.404-0.351 0.351 0 0.702 0 1.053 0h0.351c0 0 0 0 0 0.351M168.728 62.525c-0.351-0.351-1.404-0.702-2.457-0.702 0-0.351 0.351-0.702 0.351-0.702 0.351 0 0.702 0 1.053 0 0 0 0.351 0 0.351 0.351 0 0 0 0 0-0.351 0.351 0 0.351 0 0.702 0 0.351 0.702 0.702 1.053 0 1.404M180.313 63.579c-1.755 0.351-2.809-0.351-4.564-1.405 1.053 0 2.457 0.351 3.511 0.702 0.351 0 0.702 0.351 1.053 0.703M305.292 113.43c-0.702 0.351-1.053 0.351-1.755-1.053-5.617-11.936-15.798-29.138-30.543-43.532-14.394-14.745-33.702-26.681-51.255-33.001 1.053 0.351 2.457 1.053 1.755 1.756-15.447-5.968-30.192-9.479-44.234-10.883-37.915-5.968-77.585 2.106-108.128 21.766 0.351 0.702 0.351 1.053-0.702 1.755-11.234 7.021-27.032 19.309-39.671 35.458-12.638 16.149-22.468 36.511-26.681 54.766 0.351-1.053 0.702-2.809 1.405-2.107-9.128 36.16-6.67 67.053 5.968 93.735 0.702-0.702-1.755-4.213 0.351-3.862 1.404 3.862 3.16 8.075 5.266 11.936 2.457 5.617 5.266 12.989 9.128 14.745-9.83-19.309-16.5-41.426-17.203-61.085 1.404 2.809 1.053 8.777 3.16 11.234 0.702-13.34-2.457-31.245 2.106-43.883-1.053 6.67-1.755 15.798-1.053 24.925 0 6.67 3.16 25.277 5.266 27.032-0.351-0.351-0.351-2.106 0-2.106 1.053 2.106-1.404 3.16 0.351 3.511 0-0.702 0.351-0.702 0.702-0.703 3.511 7.723 8.075 19.66 11.585 25.628 4.213 7.723 9.83 14.745 16.149 21.064 0 0.351 0.351 0.351 0.352 0.702 0.702 1.755 3.16 3.862 3.861 5.266 0.351 0.702-0.351 1.755 0 2.458 5.266 9.83 12.989 19.66 22.468 27.383 5.968 7.021 15.447 14.394 27.032 20.713 11.234 5.968 24.223 10.883 36.16 13.691 8.426 2.106 18.606 2.457 24.926 3.862 8.426 1.755 23.17-0.702 30.542-2.107 44.234-6.67 88.117-36.862 110.235-80.393 22.819-43.883 22.117-97.596 2.457-138.671" fill="#e83d95" fill-rule="nonzero" stroke="none" stroke-width="1" stroke-linecap="butt" stroke-linejoin="miter" stroke-miterlimit="10" stroke-dasharray="" stroke-dashoffset="0" font-family="none" font-weight="none" font-size="none" text-anchor="none" style="mix-blend-mode: normal" data-fill-palette-color="tertiary"></path></g><g transform="matrix(1,0,0,1,80,144.66086374312863)"><svg viewBox="0 0 160 70.67827251374274" height="70.67827251374274" width="160"><g><svg viewBox="0 0 160 70.67827251374274" height="70.67827251374274" width="160"><g><svg viewBox="0 0 160 70.67827251374274" height="70.67827251374274" width="160"><g><svg viewBox="0 0 160 70.67827251374274" height="70.67827251374274" width="160"><g id="textblocktransform"><svg viewBox="0 0 160 70.67827251374274" height="70.67827251374274" width="160" id="textblock"><g><svg viewBox="0 0 160 47.366720516962836" height="47.366720516962836" width="160"><g transform="matrix(1,0,0,1,0,0)"><svg width="160" viewBox="1 -36 123.79000091552734 36.650001525878906" height="47.366720516962836" data-palette-color="#e83d95"><path d="M15.7-26.3Q18.45-26.3 20.15-24.85 21.85-23.4 21.85-20.85L21.85-20.85Q21.85-18.95 20.75-17.8 19.65-16.65 18-16.65L18-16.65Q16.45-16.65 15.75-17.45L15.75-17.45Q16.3-18.35 16.5-19.07 16.7-19.8 16.7-20.75L16.7-20.75Q16.7-23.6 14.2-23.6L14.2-23.6Q12.2-23.6 10.98-20.68 9.75-17.75 9.75-11.9L9.75-11.9 9.75-10Q9.75-5.55 9.9-3.88 10.05-2.2 10.65-0.7L10.65-0.7Q10.15-0.25 9.35 0.1 8.55 0.45 7.5 0.5L7.5 0.5Q6.15 0.5 5.23-0.35 4.3-1.2 4.3-2.65L4.3-2.65 4.3-19.55Q4.3-20.9 3.98-21.53 3.65-22.15 2.95-22.15L2.95-22.15Q2-22.15 1.65-21.45L1.65-21.45Q1-22.4 1-23.35L1-23.35Q1-24.65 1.95-25.48 2.9-26.3 4.6-26.3L4.6-26.3Q6.65-26.3 7.85-24.9 9.05-23.5 9.1-20.75L9.1-20.75Q10.85-26.3 15.7-26.3L15.7-26.3ZM63-6.55Q63-2.8 63.8-0.6L63.8-0.6Q62.45 0.65 60.65 0.65L60.65 0.65Q59.25 0.65 58.37-0.15 57.5-0.95 57.5-2.25L57.5-2.25 57.5-15.3Q57.5-19.4 56.72-21.5 55.95-23.6 53.7-23.6L53.7-23.6Q52.25-23.6 50.92-22.38 49.6-21.15 48.75-18.6 47.9-16.05 47.85-12.3L47.85-12.3 47.85-6.55Q47.85-2.8 48.7-0.6L48.7-0.6Q48 0 47.3 0.33 46.6 0.65 45.6 0.65L45.6 0.65Q44.25 0.65 43.4-0.13 42.55-0.9 42.55-2.25L42.55-2.25 42.55-15.3Q42.55-19.55 41.67-21.58 40.8-23.6 38.45-23.6L38.45-23.6Q36.95-23.6 35.7-22.33 34.45-21.05 33.67-18.38 32.9-15.7 32.9-11.7L32.9-11.7Q32.9-5.95 33.05-4.08 33.2-2.2 33.85-0.55L33.85-0.55Q32.5 0.65 30.65 0.65L30.65 0.65Q29.3 0.65 28.42-0.2 27.55-1.05 27.55-2.5L27.55-2.5 27.5-19.5Q27.5-22.15 25.9-22.15L25.9-22.15Q25.5-22.15 25.07-21.9 24.65-21.65 24.45-21.25L24.45-21.25Q23.85-22.25 23.85-23.15L23.85-23.15Q23.85-24.5 24.87-25.4 25.9-26.3 27.5-26.3L27.5-26.3Q29.7-26.3 30.95-24.73 32.2-23.15 32.25-20.1L32.25-20.1Q33.2-23.05 35.22-24.68 37.25-26.3 40.25-26.3L40.25-26.3Q43.3-26.3 45.05-24.78 46.8-23.25 47.45-20.2L47.45-20.2Q48.35-23.05 50.4-24.68 52.45-26.3 55.4-26.3L55.4-26.3Q63-26.3 63-16.1L63-16.1 63-6.55ZM73.05-29.4Q71.65-29.4 70.67-30.35 69.7-31.3 69.7-32.65L69.7-32.65Q69.7-34.05 70.67-35.02 71.65-36 73.05-36L73.05-36Q74.4-36 75.37-35.02 76.35-34.05 76.35-32.65L76.35-32.65Q76.35-31.3 75.37-30.35 74.4-29.4 73.05-29.4L73.05-29.4ZM76-6.55Q76-2.65 76.8-0.6L76.8-0.6Q75.4 0.65 73.65 0.65L73.65 0.65Q72.3 0.65 71.45-0.13 70.6-0.9 70.6-2.25L70.6-2.25 70.55-19.15Q70.55-22.8 69.75-25.15L69.75-25.15Q71.25-26.35 72.8-26.35L72.8-26.35Q74.15-26.35 75.02-25.58 75.9-24.8 75.9-23.45L75.9-23.45 76-6.55ZM105.39-6.55Q105.49-2.45 106.29-0.6L106.29-0.6Q104.94 0.65 103.14 0.65L103.14 0.65Q101.74 0.65 100.84-0.13 99.94-0.9 99.94-2.25L99.94-2.25 99.94-15.3Q99.89-19.45 98.97-21.43 98.04-23.4 95.59-23.4L95.59-23.4Q93.94-23.4 92.57-22.15 91.19-20.9 90.34-18.32 89.49-15.75 89.49-11.9L89.49-11.9Q89.49-6 89.64-4.1 89.79-2.2 90.44-0.55L90.44-0.55Q89.94-0.1 89.12 0.28 88.29 0.65 87.34 0.65L87.34 0.65Q85.89 0.65 84.99-0.2 84.09-1.05 84.09-2.5L84.09-2.5 84.09-19.55Q84.04-20.95 83.74-21.55 83.44-22.15 82.74-22.15L82.74-22.15Q81.79-22.15 81.44-21.45L81.44-21.45Q80.79-22.4 80.79-23.35L80.79-23.35Q80.79-24.65 81.74-25.48 82.69-26.3 84.39-26.3L84.39-26.3Q86.54-26.3 87.72-24.83 88.89-23.35 88.89-20.45L88.89-20.45 88.89-20.2Q89.89-23.15 92.07-24.73 94.24-26.3 97.34-26.3L97.34-26.3Q101.44-26.3 103.42-23.75 105.39-21.2 105.39-16.1L105.39-16.1 105.39-6.55ZM119.59-25.6Q120.54-25.6 122.19-25.65 123.84-25.7 124.79-25.75L124.79-25.75 124.74-24.4Q124.69-23.75 124.32-23.38 123.94-23 123.34-23L123.34-23 118.64-23 118.64-21.35 118.59-6.3Q118.59-3.6 120.94-3.6L120.94-3.6Q121.64-3.6 122.27-3.83 122.89-4.05 123.09-4.45L123.09-4.45Q123.74-3.5 123.74-2.6L123.74-2.6Q123.74-1.2 122.37-0.33 120.99 0.55 118.84 0.55L118.84 0.55Q116.14 0.55 114.64-1.15 113.14-2.85 113.14-5.85L113.14-5.85 113.14-23 112.44-23Q111.79-23 110.94-22.95 110.09-22.9 109.44-22.8L109.44-22.8 109.49-24.25Q109.54-24.9 109.94-25.25 110.34-25.6 110.94-25.6L110.94-25.6 113.14-25.6 113.14-29.4Q113.14-30.7 114.04-31.48 114.94-32.25 116.34-32.25L116.34-32.25Q118.09-32.25 119.44-31.05L119.44-31.05Q118.84-28.85 118.69-25.6L118.69-25.6 119.59-25.6Z" opacity="1" transform="matrix(1,0,0,1,0,0)" fill="#e83d95" class="undefined-text-0" data-fill-palette-color="primary" id="text-0"></path></svg></g></svg></g><g transform="matrix(1,0,0,1,0,58.54886642972535)"><svg viewBox="0 0 160 12.129406084017383" height="12.129406084017383" width="160"><g transform="matrix(1,0,0,1,0,0)"><svg width="160" viewBox="-0.20000000298023224 -37.099998474121094 621.239990234375 47.099998474121094" height="12.129406084017383" data-palette-color="#a62a6c"><path d="M30.1-31.4L28.35-27.45Q23.25-30.35 17.45-30.9L17.45-30.9 17.45 0 12.5 0 12.5-30.9Q6.65-30.35 1.55-27.45L1.55-27.45-0.2-31.4Q6.5-35.4 14.9-35.4L14.9-35.4Q23.4-35.4 30.1-31.4L30.1-31.4ZM51.9-26.5L56.7-26.5 56.7 0 52.1 0 52.1-4.2Q50.5-2 48.05-0.85 45.6 0.3 42.65 0.3L42.65 0.3Q38.8 0.3 35.75-1.4 32.7-3.1 30.97-6.18 29.25-9.25 29.25-13.25L29.25-13.25Q29.25-17.25 30.97-20.3 32.7-23.35 35.75-25.05 38.8-26.75 42.65-26.75L42.65-26.75Q45.5-26.75 47.9-25.68 50.3-24.6 51.9-22.5L51.9-22.5 51.9-26.5ZM43.05-3.9Q45.55-3.9 47.6-5.08 49.65-6.25 50.8-8.38 51.95-10.5 51.95-13.25L51.95-13.25Q51.95-16 50.8-18.13 49.65-20.25 47.6-21.4 45.55-22.55 43.05-22.55L43.05-22.55Q40.5-22.55 38.47-21.4 36.45-20.25 35.27-18.13 34.1-16 34.1-13.25L34.1-13.25Q34.1-10.5 35.27-8.38 36.45-6.25 38.47-5.08 40.5-3.9 43.05-3.9L43.05-3.9ZM73.4 0.3Q70.15 0.3 67.15-0.58 64.15-1.45 62.45-2.8L62.45-2.8 64.45-6.6Q66.2-5.35 68.7-4.6 71.2-3.85 73.75-3.85L73.75-3.85Q80.05-3.85 80.05-7.45L80.05-7.45Q80.05-8.65 79.2-9.35 78.34-10.05 77.07-10.38 75.8-10.7 73.45-11.1L73.45-11.1Q70.25-11.6 68.22-12.25 66.2-12.9 64.75-14.45 63.3-16 63.3-18.8L63.3-18.8Q63.3-22.4 66.3-24.58 69.3-26.75 74.34-26.75L74.34-26.75Q77-26.75 79.65-26.1 82.3-25.45 84-24.35L84-24.35 81.95-20.55Q78.7-22.65 74.3-22.65L74.3-22.65Q71.25-22.65 69.65-21.65 68.05-20.65 68.05-19L68.05-19Q68.05-17.7 68.95-16.95 69.84-16.2 71.17-15.85 72.5-15.5 74.9-15.05L74.9-15.05Q78.09-14.5 80.07-13.88 82.05-13.25 83.45-11.75 84.84-10.25 84.84-7.55L84.84-7.55Q84.84-3.95 81.77-1.83 78.7 0.3 73.4 0.3L73.4 0.3ZM103.29-5L104.79-1.55Q103.74-0.65 102.19-0.18 100.64 0.3 98.99 0.3L98.99 0.3Q94.99 0.3 92.79-1.85 90.59-4 90.59-8L90.59-8 90.59-32.3 95.39-32.3 95.39-26.5 102.99-26.5 102.99-22.55 95.39-22.55 95.39-8.2Q95.39-6.05 96.47-4.9 97.54-3.75 99.54-3.75L99.54-3.75Q101.74-3.75 103.29-5L103.29-5ZM121.64-3.9Q126.39-3.9 129.29-7.1L129.29-7.1 131.89-4Q130.14-1.9 127.47-0.8 124.79 0.3 121.49 0.3L121.49 0.3Q117.29 0.3 114.04-1.43 110.79-3.15 109.02-6.25 107.24-9.35 107.24-13.25L107.24-13.25Q107.24-17.1 108.97-20.2 110.69-23.3 113.72-25.03 116.74-26.75 120.54-26.75L120.54-26.75Q124.14-26.75 127.09-25.13 130.04-23.5 131.79-20.55 133.54-17.6 133.59-13.75L133.59-13.75 112.54-9.65Q113.54-6.9 115.92-5.4 118.29-3.9 121.64-3.9L121.64-3.9ZM120.54-22.7Q118.04-22.7 116.06-21.55 114.09-20.4 112.99-18.32 111.89-16.25 111.89-13.5L111.89-13.5 111.89-13 128.84-16.2Q128.19-19.1 125.94-20.9 123.69-22.7 120.54-22.7L120.54-22.7ZM192.69-35.4Q198.74-35.4 202.13-31.9 205.53-28.4 205.53-21.75L205.53-21.75 205.53 0 200.59 0 200.59-21.6Q200.59-26.2 198.19-28.58 195.78-30.95 191.84-30.95L191.84-30.95Q187.49-30.95 184.96-28.48 182.44-26 182.44-20.9L182.44-20.9 182.44 0 177.49 0 177.49-21.6Q177.49-26.25 175.21-28.6 172.94-30.95 168.99-30.95L168.99-30.95Q164.59-30.95 162.01-28.45 159.44-25.95 159.44-20.9L159.44-20.9 159.44 0 154.44 0 154.44-35 159.24-35 159.24-29.9Q160.78-32.5 163.61-33.95 166.44-35.4 170.19-35.4L170.19-35.4Q174.09-35.4 176.91-33.85 179.74-32.3 181.09-29.55L181.09-29.55Q182.74-32.35 185.76-33.88 188.78-35.4 192.69-35.4L192.69-35.4ZM226.43 0.3Q222.48 0.3 219.33-1.45 216.18-3.2 214.41-6.28 212.63-9.35 212.63-13.25L212.63-13.25Q212.63-17.15 214.41-20.23 216.18-23.3 219.33-25.03 222.48-26.75 226.43-26.75L226.43-26.75Q230.38-26.75 233.51-25.03 236.63-23.3 238.41-20.23 240.18-17.15 240.18-13.25L240.18-13.25Q240.18-9.35 238.41-6.28 236.63-3.2 233.51-1.45 230.38 0.3 226.43 0.3L226.43 0.3ZM226.43-3.9Q228.98-3.9 231.01-5.08 233.03-6.25 234.18-8.38 235.33-10.5 235.33-13.25L235.33-13.25Q235.33-16 234.18-18.13 233.03-20.25 231.01-21.4 228.98-22.55 226.43-22.55L226.43-22.55Q223.88-22.55 221.86-21.4 219.83-20.25 218.66-18.13 217.48-16 217.48-13.25L217.48-13.25Q217.48-10.5 218.66-8.38 219.83-6.25 221.86-5.08 223.88-3.9 226.43-3.9L226.43-3.9ZM251.43-22.05Q252.68-24.35 255.13-25.55 257.58-26.75 261.08-26.75L261.08-26.75 261.08-22.1Q260.68-22.15 259.98-22.15L259.98-22.15Q256.08-22.15 253.85-19.83 251.63-17.5 251.63-13.2L251.63-13.2 251.63 0 246.83 0 246.83-26.5 251.43-26.5 251.43-22.05ZM278.68-3.9Q283.43-3.9 286.33-7.1L286.33-7.1 288.93-4Q287.18-1.9 284.5-0.8 281.83 0.3 278.53 0.3L278.53 0.3Q274.33 0.3 271.08-1.43 267.83-3.15 266.05-6.25 264.28-9.35 264.28-13.25L264.28-13.25Q264.28-17.1 266-20.2 267.73-23.3 270.75-25.03 273.78-26.75 277.58-26.75L277.58-26.75Q281.18-26.75 284.13-25.13 287.08-23.5 288.83-20.55 290.58-17.6 290.63-13.75L290.63-13.75 269.58-9.65Q270.58-6.9 272.95-5.4 275.33-3.9 278.68-3.9L278.68-3.9ZM277.58-22.7Q275.08-22.7 273.1-21.55 271.13-20.4 270.03-18.32 268.93-16.25 268.93-13.5L268.93-13.5 268.93-13 285.88-16.2Q285.23-19.1 282.98-20.9 280.73-22.7 277.58-22.7L277.58-22.7ZM298.52-6.55Q299.92-6.55 300.85-5.58 301.77-4.6 301.77-3.15L301.77-3.15Q301.77-2.4 301.6-1.7 301.42-1 300.92 0.45L300.92 0.45 298.57 7.4 295.42 7.4 297.27-0.05Q296.32-0.4 295.75-1.23 295.17-2.05 295.17-3.15L295.17-3.15Q295.17-4.65 296.13-5.6 297.07-6.55 298.52-6.55L298.52-6.55ZM347.17-7.55L348.87-3.65Q346.62-1.75 342.97-0.68 339.32 0.4 335.02 0.4L335.02 0.4Q330.22 0.4 326.87-0.88 323.52-2.15 321.82-4.4 320.12-6.65 320.12-9.6L320.12-9.6Q320.12-12.6 321.84-14.78 323.57-16.95 326.32-17.9L326.32-17.9Q324.12-18.9 322.87-20.93 321.62-22.95 321.62-25.6L321.62-25.6Q321.62-28.35 323.19-30.55 324.77-32.75 327.97-34.08 331.17-35.4 335.77-35.4L335.77-35.4Q339.02-35.4 342.09-34.7 345.17-34 347.42-32.7L347.42-32.7 345.97-28.7Q341.47-31.1 335.97-31.1L335.97-31.1Q331.42-31.1 329.02-29.48 326.62-27.85 326.62-25.25L326.62-25.25Q326.62-22.65 328.47-21.25 330.32-19.85 333.77-19.85L333.77-19.85 342.77-19.85 342.77-15.55 333.57-15.55Q329.62-15.55 327.37-14.15 325.12-12.75 325.12-9.95L325.12-9.95Q325.12-7.1 327.67-5.5 330.22-3.9 335.27-3.9L335.27-3.9Q338.77-3.9 341.94-4.88 345.12-5.85 347.17-7.55L347.17-7.55ZM374.12-26.5L378.92-26.5 378.92 0 374.32 0 374.32-4.2Q372.72-2 370.27-0.85 367.82 0.3 364.87 0.3L364.87 0.3Q361.02 0.3 357.97-1.4 354.92-3.1 353.19-6.18 351.47-9.25 351.47-13.25L351.47-13.25Q351.47-17.25 353.19-20.3 354.92-23.35 357.97-25.05 361.02-26.75 364.87-26.75L364.87-26.75Q367.72-26.75 370.12-25.68 372.52-24.6 374.12-22.5L374.12-22.5 374.12-26.5ZM365.27-3.9Q367.77-3.9 369.82-5.08 371.87-6.25 373.02-8.38 374.17-10.5 374.17-13.25L374.17-13.25Q374.17-16 373.02-18.13 371.87-20.25 369.82-21.4 367.77-22.55 365.27-22.55L365.27-22.55Q362.72-22.55 360.69-21.4 358.67-20.25 357.49-18.13 356.32-16 356.32-13.25L356.32-13.25Q356.32-10.5 357.49-8.38 358.67-6.25 360.69-5.08 362.72-3.9 365.27-3.9L365.27-3.9ZM400.47-5L401.97-1.55Q400.92-0.65 399.37-0.18 397.82 0.3 396.17 0.3L396.17 0.3Q392.17 0.3 389.97-1.85 387.77-4 387.77-8L387.77-8 387.77-32.3 392.57-32.3 392.57-26.5 400.17-26.5 400.17-22.55 392.57-22.55 392.57-8.2Q392.57-6.05 393.64-4.9 394.72-3.75 396.72-3.75L396.72-3.75Q398.92-3.75 400.47-5L400.47-5ZM447.01-35L452.01-35 452.01 0 447.01 0 447.01-15.6 426.91-15.6 426.91 0 421.91 0 421.91-35 426.91-35 426.91-19.95 447.01-19.95 447.01-35ZM473.76-3.9Q478.51-3.9 481.41-7.1L481.41-7.1 484.01-4Q482.26-1.9 479.58-0.8 476.91 0.3 473.61 0.3L473.61 0.3Q469.41 0.3 466.16-1.43 462.91-3.15 461.13-6.25 459.36-9.35 459.36-13.25L459.36-13.25Q459.36-17.1 461.08-20.2 462.81-23.3 465.83-25.03 468.86-26.75 472.66-26.75L472.66-26.75Q476.26-26.75 479.21-25.13 482.16-23.5 483.91-20.55 485.66-17.6 485.71-13.75L485.71-13.75 464.66-9.65Q465.66-6.9 468.03-5.4 470.41-3.9 473.76-3.9L473.76-3.9ZM472.66-22.7Q470.16-22.7 468.18-21.55 466.21-20.4 465.11-18.32 464.01-16.25 464.01-13.5L464.01-13.5 464.01-13 480.96-16.2Q480.31-19.1 478.06-20.9 475.81-22.7 472.66-22.7L472.66-22.7ZM512.61-26.5L517.41-26.5 517.41 0 512.81 0 512.81-4.2Q511.21-2 508.76-0.85 506.31 0.3 503.36 0.3L503.36 0.3Q499.51 0.3 496.46-1.4 493.41-3.1 491.68-6.18 489.96-9.25 489.96-13.25L489.96-13.25Q489.96-17.25 491.68-20.3 493.41-23.35 496.46-25.05 499.51-26.75 503.36-26.75L503.36-26.75Q506.21-26.75 508.61-25.68 511.01-24.6 512.61-22.5L512.61-22.5 512.61-26.5ZM503.76-3.9Q506.26-3.9 508.31-5.08 510.36-6.25 511.51-8.38 512.66-10.5 512.66-13.25L512.66-13.25Q512.66-16 511.51-18.13 510.36-20.25 508.31-21.4 506.26-22.55 503.76-22.55L503.76-22.55Q501.21-22.55 499.18-21.4 497.16-20.25 495.98-18.13 494.81-16 494.81-13.25L494.81-13.25Q494.81-10.5 495.98-8.38 497.16-6.25 499.18-5.08 501.21-3.9 503.76-3.9L503.76-3.9ZM534.55 0.3Q530.7 0.3 528.6-1.83 526.5-3.95 526.5-7.8L526.5-7.8 526.5-37.1 531.3-37.1 531.3-8.2Q531.3-6.05 532.33-4.9 533.35-3.75 535.4-3.75L535.4-3.75Q536.65-3.75 537.75-4.25L537.75-4.25 538-0.3Q536.35 0.3 534.55 0.3L534.55 0.3ZM555-5L556.5-1.55Q555.45-0.65 553.9-0.18 552.35 0.3 550.7 0.3L550.7 0.3Q546.7 0.3 544.5-1.85 542.3-4 542.3-8L542.3-8 542.3-32.3 547.1-32.3 547.1-26.5 554.7-26.5 554.7-22.55 547.1-22.55 547.1-8.2Q547.1-6.05 548.17-4.9 549.25-3.75 551.25-3.75L551.25-3.75Q553.45-3.75 555-5L555-5ZM576.45-26.75Q581.5-26.75 584.47-23.83 587.45-20.9 587.45-15.25L587.45-15.25 587.45 0 582.65 0 582.65-14.7Q582.65-18.55 580.8-20.5 578.95-22.45 575.5-22.45L575.5-22.45Q571.6-22.45 569.35-20.18 567.1-17.9 567.1-13.65L567.1-13.65 567.1 0 562.3 0 562.3-37.1 567.1-37.1 567.1-22.75Q568.6-24.65 571.02-25.7 573.45-26.75 576.45-26.75L576.45-26.75ZM616.24-26.5L621.04-26.5 621.04-3.6Q621.04 3.35 617.79 6.68 614.54 10 608.04 10L608.04 10Q604.49 10 601.27 8.97 598.04 7.95 595.99 6.05L595.99 6.05 598.34 2.35Q600.09 3.95 602.57 4.85 605.04 5.75 607.79 5.75L607.79 5.75Q612.14 5.75 614.19 3.58 616.24 1.4 616.24-3.1L616.24-3.1 616.24-5.05Q614.79-3.15 612.49-2.13 610.19-1.1 607.49-1.1L607.49-1.1Q602.19-1.1 599.14-4 596.09-6.9 596.09-12.6L596.09-12.6 596.09-26.5 600.89-26.5 600.89-13.15Q600.89-9.35 602.74-7.38 604.59-5.4 608.04-5.4L608.04-5.4Q611.84-5.4 614.04-7.7 616.24-10 616.24-14.2L616.24-14.2 616.24-26.5Z" opacity="1" transform="matrix(1,0,0,1,0,0)" fill="#a62a6c" class="undefined-text-1" data-fill-palette-color="secondary" id="text-1"></path></svg></g></svg></g></svg></g></svg></g><g></g></svg></g></svg></g></svg></g></svg></g><defs></defs></svg><rect width="320" height="360" fill="none" stroke="none" visibility="hidden"></rect></g></svg></g></svg>